<?xml version="1.0" encoding="iso-8859-1"?>
<!-- Generator: Adobe Illustrator 19.0.0, SVG Export Plug-In . SVG Version: 6.00 Build 0)  -->
<svg version="1.1" id="Capa_1" xmlns="http://www.w3.org/2000/svg" xmlns:xlink="http://www.w3.org/1999/xlink" x="0px" y="0px"
	 viewBox="0 0 296.333 296.333" style="enable-background:new 0 0 296.333 296.333;" xml:space="preserve">
<g>
	<path d="M288.666,115.166h-29.522C244.461,58.485,192.874,16.5,131.666,16.5C59.065,16.5,0,75.566,0,148.167
		s59.065,131.666,131.666,131.666c61.208,0,112.795-41.984,127.477-98.666h29.522c4.418,0,7.667-3.582,7.667-8v-50
		C296.333,118.748,293.084,115.166,288.666,115.166z M131.666,263.832C67.888,263.832,16,211.945,16,148.167
		S67.888,32.5,131.666,32.5s115.666,51.888,115.666,115.666S195.444,263.832,131.666,263.832z"/>
	<path d="M230.461,148.167c0-54.476-44.319-98.795-98.795-98.795s-98.794,44.319-98.794,98.795s44.318,98.795,98.794,98.795
		S230.461,202.642,230.461,148.167z M131.805,208.466C46.875,154.279,70.423,106.002,92.92,98.808
		c18.945-6.057,31.063,5.014,38.885,17.915c6.505-14.407,19.931-23.972,38.885-17.915
		C193.179,106.002,216.726,154.279,131.805,208.466z"/>
</g>
<g>
</g>
<g>
</g>
<g>
</g>
<g>
</g>
<g>
</g>
<g>
</g>
<g>
</g>
<g>
</g>
<g>
</g>
<g>
</g>
<g>
</g>
<g>
</g>
<g>
</g>
<g>
</g>
<g>
</g>
</svg>
